# xmcd CD database file
#
# Track frame offsets:
#	150
#	12059
#	26575
#	38604
#	50388
#	65205
#	77290
#	89825
#	102359
#	115998
#	127317
#	140961
#	153489
#	165109
#	178146
#	190907
#	201974
#	213562
#	226152
#	238652
#	252791
#	266002
#	280281
#	293532
#	304182
#
# Disc length: 4227 seconds
#
# Revision: 0
# Processed by: cddbd v1.5.1PL0 Copyright (c) Steve Scherf et al.
# Submitted via: CDex 1.51
#
DISCID=6b108119
DTITLE=Memphis Minnie - Queen of the Delta Blues, Volume 2, Disc D
DYEAR=2004
DGENRE=Blues
TTITLE0=Moanin' Blues, Take 3 
TTITLE1=Moanin' Blues, Take 4 
TTITLE2=Got to Leave You, Take 1 
TTITLE3=Got to Leave You, Take 4 
TTITLE4=The Man I Love, Take 3 
TTITLE5=The Man I Love, Take 4 
TTITLE6=The Man I Love, Take 5 
TTITLE7=Got To Leave You (No. 2), Take 1 
TTITLE8=Got To Leave You (No. 2), Take 2 
TTITLE9=Killer Diller Blues (No. 2) 
TTITLE10=Moanin' Blues (No. 2) 
TTITLE11=Hold Me Blues (No. 2) 
TTITLE12=Fish Man Blues, Take 2 
TTITLE13=Fish Man Blues, Take 3 
TTITLE14=Western Union 
TTITLE15=My Man Is Gone Again, Take 1 
TTITLE16=My Man Is Gone Again, Take 3 
TTITLE17=Lean Meat Won't Fry, Take 1 
TTITLE18=Lean Meat Won't Fry, Take 2 
TTITLE19=Three Times Seven Blues 
TTITLE20=Daybreak Blues, Take 2 
TTITLE21=Daybreak Blues, Take 3 
TTITLE22=Million Dollar Blues 
TTITLE23=Shout The Boogie, Take 3 
TTITLE24=Shout The Boogie, Take 4 
EXTD=YEAR: 2004
EXTT0=
EXTT1=
EXTT2=
EXTT3=
EXTT4=
EXTT5=
EXTT6=
EXTT7=
EXTT8=
EXTT9=
EXTT10=
EXTT11=
EXTT12=
EXTT13=
EXTT14=
EXTT15=
EXTT16=
EXTT17=
EXTT18=
EXTT19=
EXTT20=
EXTT21=
EXTT22=
EXTT23=
EXTT24=
PLAYORDER=
